<svg aria-hidden="true" style="position: absolute; width: 0; height: 0; overflow: hidden;" version="1.1" xmlns="http://www.w3.org/2000/svg" xmlns:xlink="http://www.w3.org/1999/xlink">
<defs>
<symbol id="icon-comment" viewBox="0 0 32 32">
<path d="M7 24c-2.393 0-4.333-1.94-4.333-4.333v-11.333c0-2.393 1.94-4.333 4.333-4.333h18c2.393 0 4.333 1.94 4.333 4.333v11.333c0 2.393-1.94 4.333-4.333 4.333h-7.65l-6.685 5.001c-0.737 0.551-1.782 0.401-2.333-0.336-0.216-0.288-0.332-0.638-0.332-0.998l-0.001-3.667h-0.999zM16.685 22h8.315c1.289 0 2.333-1.045 2.333-2.333v-11.333c0-1.289-1.045-2.333-2.333-2.333h-18c-1.289 0-2.333 1.045-2.333 2.333v11.333c0 1.289 1.045 2.333 2.333 2.333h2.998l0 1 0.001 4.001 6.685-5.001z"></path>
</symbol>
<symbol id="icon-dislike" viewBox="0 0 32 32">
<path d="M31.941 15.868l-1.762-10.978c-0.342-2.754-2.268-4.338-5.285-4.338h-13.66c-1.262 0-2.426 0.546-3.247 1.42-0.296-0.362-0.749-0.585-1.249-0.585h-5.114c-0.894 0-1.624 0.73-1.624 1.624v15.014c0 0.894 0.73 1.624 1.624 1.624h5.121c0.592 0 1.117-0.322 1.4-0.802l0.191 0.046c0.289 0.085 5.311 1.643 5.311 5.962v5.581c0 0.342 0.223 0.651 0.552 0.749 0.059 0.020 0.848 0.263 1.86 0.263 0.874 0 1.913-0.177 2.794-0.828 1.21-0.887 1.821-2.399 1.821-4.496v-4.983h6.909c1.025 0 2.038-0.381 2.846-1.065 1.183-1.012 1.768-2.629 1.512-4.207zM6.784 18.031c0 0.026-0.020 0.046-0.046 0.046h-5.114c-0.026 0-0.046-0.020-0.046-0.046v-15.014c0-0.026 0.020-0.046 0.046-0.046h5.121c0.026 0 0.046 0.020 0.046 0.046v15.014h-0.007zM29.403 18.879c-0.519 0.447-1.17 0.69-1.821 0.69h-7.704c-0.434 0-0.789 0.355-0.789 0.789v5.771c0 1.564-0.394 2.649-1.17 3.221-0.855 0.631-2.025 0.565-2.702 0.46v-4.95c0-2.34-1.137-4.384-3.28-5.91-1.571-1.111-3.129-1.558-3.195-1.578-0.013 0-0.020-0.007-0.033-0.007l-0.342-0.079v-12.588c0.013-0.046 0.026-0.092 0.033-0.138 0.217-1.38 1.433-2.426 2.833-2.426h13.66c2.228 0 3.477 0.999 3.721 2.965 0 0.013 0 0.020 0.007 0.026l1.768 10.984c0.164 1.045-0.217 2.104-0.986 2.767z"></path>
</symbol>
<symbol id="icon-like" viewBox="0 0 32 32">
<path d="M31.145 18.564c0-0.5-0.119-0.98-0.347-1.415 0.752-0.574 1.202-1.465 1.202-2.432 0-1.69-1.375-3.064-3.064-3.064h-8.298c0.715-1.828 1.104-4.045 1.104-6.339 0-1.454-1.183-2.637-2.637-2.637s-2.637 1.183-2.637 2.637c0 5.198-3.626 9.087-9.022 9.678-0.037 0.004-0.072 0.012-0.106 0.024-0.355-0.32-0.825-0.516-1.339-0.516h-4c-1.103 0-2 0.897-2 2v9.5c0 1.103 0.897 2 2 2h4c0.61 0 1.157-0.275 1.524-0.707 1.28 0.187 2.109 0.596 2.91 0.993 1.030 0.51 2.096 1.037 3.969 1.037h11.968c1.69 0 3.064-1.375 3.064-3.064 0-0.499-0.119-0.98-0.347-1.415 0.752-0.574 1.202-1.465 1.202-2.432 0-0.499-0.119-0.98-0.347-1.415 0.752-0.574 1.202-1.465 1.202-2.432zM29.098 20.358h-0.848c-0.276 0-0.5 0.224-0.5 0.5s0.224 0.5 0.5 0.5h0.747c0.191 0.319 0.293 0.678 0.293 1.053 0 0.757-0.41 1.444-1.073 1.807h-0.909c-0.276 0-0.5 0.224-0.5 0.5s0.224 0.5 0.5 0.5h0.843c0.186 0.315 0.285 0.669 0.285 1.039 0 1.138-0.926 2.064-2.064 2.064h-11.968c-1.639 0-2.513-0.433-3.525-0.933-0.772-0.382-1.64-0.81-2.91-1.037 0.020-0.114 0.032-0.232 0.032-0.352v-7.563c0-0.276-0.224-0.5-0.5-0.5s-0.5 0.224-0.5 0.5v7.563c0 0.551-0.449 1-1 1h-4c-0.551 0-1-0.449-1-1v-9.5c0-0.551 0.449-1 1-1h4c0.551 0 1 0.449 1 1 0 0.276 0.224 0.5 0.5 0.5s0.5-0.224 0.5-0.5c0-0.194-0.028-0.382-0.080-0.559 2.799-0.382 5.176-1.583 6.893-3.488 1.712-1.901 2.655-4.435 2.655-7.138 0-0.903 0.734-1.637 1.637-1.637s1.637 0.734 1.637 1.637c0 2.457-0.466 4.81-1.314 6.627-0.117 0.25-0.008 0.548 0.242 0.664 0.081 0.038 0.168 0.052 0.252 0.045 0.013 0.001 0.025 0.002 0.038 0.002h8.976c1.138 0 2.064 0.926 2.064 2.065 0 0.737-0.389 1.409-1.022 1.779h-0.936c-0.276 0-0.5 0.224-0.5 0.5s0.224 0.5 0.5 0.5h0.802c0.197 0.322 0.301 0.686 0.301 1.067 0 0.747-0.4 1.426-1.047 1.793z"></path>
<path d="M26.399 20.358h-0.533c-0.276 0-0.5 0.224-0.5 0.5s0.224 0.5 0.5 0.5h0.533c0.276 0 0.5-0.224 0.5-0.5s-0.224-0.5-0.5-0.5z"></path>
<path d="M27.308 16.497h-0.533c-0.276 0-0.5 0.224-0.5 0.5s0.224 0.5 0.5 0.5h0.533c0.276 0 0.5-0.224 0.5-0.5s-0.224-0.5-0.5-0.5z"></path>
<path d="M25.49 24.219h-0.533c-0.276 0-0.5 0.224-0.5 0.5s0.224 0.5 0.5 0.5h0.533c0.276 0 0.5-0.224 0.5-0.5s-0.224-0.5-0.5-0.5z"></path>
<path d="M5 16.5c-0.551 0-1 0.449-1 1s0.449 1 1 1 1-0.449 1-1-0.449-1-1-1z"></path>
</symbol>
</defs>
</svg>
